# Blender 5.2.0 LTS
# www.blender.org
mtllib блокбенч.mtl
o Head.001
v 0.250000 0.500000 0.250000
v 0.250000 0.500000 -0.250000
v 0.250000 0.000000 0.250000
v 0.250000 0.000000 -0.250000
v -0.250000 0.500000 -0.250000
v -0.250000 0.500000 0.250000
v -0.250000 0.000000 -0.250000
v -0.250000 0.000000 0.250000
v -0.250000 0.500000 -0.250000
v 0.250000 0.500000 -0.250000
v -0.250000 0.500000 0.250000
v 0.250000 0.500000 0.250000
v -0.250000 0.000000 0.250000
v 0.250000 0.000000 0.250000
v -0.250000 0.000000 -0.250000
v 0.250000 0.000000 -0.250000
v -0.250000 0.500000 0.250000
v 0.250000 0.500000 0.250000
v -0.250000 0.000000 0.250000
v 0.250000 0.000000 0.250000
v 0.250000 0.500000 -0.250000
v -0.250000 0.500000 -0.250000
v 0.250000 0.000000 -0.250000
v -0.250000 0.000000 -0.250000
vn 1.0000 -0.0000 -0.0000
vn -1.0000 -0.0000 -0.0000
vn -0.0000 1.0000 -0.0000
vn -0.0000 -1.0000 -0.0000
vn -0.0000 -0.0000 1.0000
vn -0.0000 -0.0000 -1.0000
vt 0.000244 0.874756
vt 0.000244 0.750244
vt 0.124756 0.874756
vt 0.124756 0.750244
vt 0.250244 0.874756
vt 0.250244 0.750244
vt 0.374756 0.874756
vt 0.374756 0.750244
vt 0.249756 0.875244
vt 0.249756 0.999756
vt 0.125244 0.875244
vt 0.125244 0.999756
vt 0.374756 0.999756
vt 0.374756 0.875244
vt 0.250244 0.999756
vt 0.250244 0.875244
vt 0.375244 0.874756
vt 0.375244 0.750244
vt 0.499756 0.874756
vt 0.499756 0.750244
vt 0.125244 0.874756
vt 0.125244 0.750244
vt 0.249756 0.874756
vt 0.249756 0.750244
s 0
usemtl Material_0.005
f 1/1/1 3/2/1 2/3/1
f 3/2/1 4/4/1 2/3/1
f 5/5/2 7/6/2 6/7/2
f 7/6/2 8/8/2 6/7/2
f 9/9/3 11/10/3 10/11/3
f 11/10/3 12/12/3 10/11/3
f 13/13/4 15/14/4 14/15/4
f 15/14/4 16/16/4 14/15/4
f 17/17/5 19/18/5 18/19/5
f 19/18/5 20/20/5 18/19/5
f 21/21/6 23/22/6 22/23/6
f 23/22/6 24/24/6 22/23/6
o Hat_Layer
v 0.281250 0.531250 0.281250
v 0.281250 0.531250 -0.281250
v 0.281250 -0.031250 0.281250
v 0.281250 -0.031250 -0.281250
v -0.281250 0.531250 -0.281250
v -0.281250 0.531250 0.281250
v -0.281250 -0.031250 -0.281250
v -0.281250 -0.031250 0.281250
v -0.281250 0.531250 -0.281250
v 0.281250 0.531250 -0.281250
v -0.281250 0.531250 0.281250
v 0.281250 0.531250 0.281250
v -0.281250 -0.031250 0.281250
v 0.281250 -0.031250 0.281250
v -0.281250 -0.031250 -0.281250
v 0.281250 -0.031250 -0.281250
v -0.281250 0.531250 0.281250
v 0.281250 0.531250 0.281250
v -0.281250 -0.031250 0.281250
v 0.281250 -0.031250 0.281250
v 0.281250 0.531250 -0.281250
v -0.281250 0.531250 -0.281250
v 0.281250 -0.031250 -0.281250
v -0.281250 -0.031250 -0.281250
vn 1.0000 -0.0000 -0.0000
vn -1.0000 -0.0000 -0.0000
vn -0.0000 1.0000 -0.0000
vn -0.0000 -1.0000 -0.0000
vn -0.0000 -0.0000 1.0000
vn -0.0000 -0.0000 -1.0000
vt 0.500244 0.874756
vt 0.500244 0.750244
vt 0.624756 0.874756
vt 0.624756 0.750244
vt 0.750244 0.874756
vt 0.750244 0.750244
vt 0.874756 0.874756
vt 0.874756 0.750244
vt 0.749756 0.875244
vt 0.749756 0.999756
vt 0.625244 0.875244
vt 0.625244 0.999756
vt 0.874756 0.999756
vt 0.874756 0.875244
vt 0.750244 0.999756
vt 0.750244 0.875244
vt 0.875244 0.874756
vt 0.875244 0.750244
vt 0.999756 0.874756
vt 0.999756 0.750244
vt 0.625244 0.874756
vt 0.625244 0.750244
vt 0.749756 0.874756
vt 0.749756 0.750244
s 0
usemtl Material_0.005
f 25/25/7 27/26/7 26/27/7
f 27/26/7 28/28/7 26/27/7
f 29/29/8 31/30/8 30/31/8
f 31/30/8 32/32/8 30/31/8
f 33/33/9 35/34/9 34/35/9
f 35/34/9 36/36/9 34/35/9
f 37/37/10 39/38/10 38/39/10
f 39/38/10 40/40/10 38/39/10
f 41/41/11 43/42/11 42/43/11
f 43/42/11 44/44/11 42/43/11
f 45/45/12 47/46/12 46/47/12
f 47/46/12 48/48/12 46/47/12
